<?xml version="1.0" encoding="UTF-8"?>
<svg version="1.1" xmlns="http://www.w3.org/2000/svg" width="350" height="363">
<path d="M0 0 C2.45767104 -0.00434431 4.91349783 -0.04069043 7.37084961 -0.07861328 C32.7248251 -0.25637108 56.08769792 8.0475975 76.92358398 22.24560547 C77.62451172 22.72199463 78.32543945 23.19838379 79.04760742 23.68920898 C80.71433606 24.8594876 82.32545734 26.10825543 83.92358398 27.37060547 C83.92358398 28.03060547 83.92358398 28.69060547 83.92358398 29.37060547 C84.72795898 29.71091797 84.72795898 29.71091797 85.54858398 30.05810547 C88.7481856 31.82630636 91.21395622 33.9073075 93.92358398 36.37060547 C93.92358398 37.03060547 93.92358398 37.69060547 93.92358398 38.37060547 C94.58358398 38.37060547 95.24358398 38.37060547 95.92358398 38.37060547 C99.92358398 42.8411937 99.92358398 42.8411937 99.92358398 45.37060547 C100.58358398 45.37060547 101.24358398 45.37060547 101.92358398 45.37060547 C104.03200264 47.79324759 105.74845382 50.52631437 107.54858398 53.18310547 C108.06420898 53.92109375 108.57983398 54.65908203 109.11108398 55.41943359 C109.59834961 56.13164063 110.08561523 56.84384766 110.58764648 57.57763672 C111.03575684 58.23223877 111.48386719 58.88684082 111.94555664 59.5612793 C112.92358398 61.37060547 112.92358398 61.37060547 112.92358398 64.37060547 C113.58358398 64.37060547 114.24358398 64.37060547 114.92358398 64.37060547 C125.54751966 88.3492772 125.54751966 88.3492772 127.92358398 98.37060547 C128.18413574 99.46538208 128.18413574 99.46538208 128.44995117 100.58227539 C130.26467323 109.15853539 130.3204403 117.71046918 130.29858398 126.43310547 C130.2983725 127.21028931 130.29816101 127.98747314 130.29794312 128.78820801 C130.26618537 140.46963999 129.50771021 151.18200091 125.92358398 162.37060547 C125.57295898 163.62486328 125.22233398 164.87912109 124.86108398 166.17138672 C120.07122834 182.18746653 111.58340345 195.74242879 101.22583008 208.73193359 C100.02433524 210.24382586 98.85702739 211.78271893 97.69311523 213.32373047 C97.10916992 213.99919922 96.52522461 214.67466797 95.92358398 215.37060547 C95.26358398 215.37060547 94.60358398 215.37060547 93.92358398 215.37060547 C93.59358398 216.36060547 93.26358398 217.35060547 92.92358398 218.37060547 C88.15580021 223.28106606 82.48414893 227.40432837 76.92358398 231.37060547 C76.06249023 231.99966797 75.20139648 232.62873047 74.31420898 233.27685547 C47.96914097 251.78960597 13.93604029 258.42046804 -17.70922852 253.64404297 C-22.24177382 252.80910041 -26.65889259 251.67703301 -31.07641602 250.37060547 C-31.75188477 250.17805176 -32.42735352 249.98549805 -33.12329102 249.78710938 C-48.82180493 245.23499669 -65.5812129 237.17640612 -78.07641602 226.37060547 C-78.07641602 225.71060547 -78.07641602 225.05060547 -78.07641602 224.37060547 C-78.88079102 224.03029297 -78.88079102 224.03029297 -79.70141602 223.68310547 C-89.86906725 218.06414031 -96.54864011 207.62720573 -103.07641602 198.37060547 C-103.60235352 197.66419922 -104.12829102 196.95779297 -104.67016602 196.22998047 C-122.75627991 171.0248643 -127.95684641 135.53633671 -123.2512207 105.45751953 C-122.6651068 102.38476604 -121.90634323 99.3861179 -121.07641602 96.37060547 C-120.8941748 95.70287109 -120.71193359 95.03513672 -120.52416992 94.34716797 C-116.40213158 79.52573686 -109.71463585 66.63348391 -102.07641602 53.37060547 C-101.41641602 53.37060547 -100.75641602 53.37060547 -100.07641602 53.37060547 C-99.85856445 52.67322266 -99.64071289 51.97583984 -99.41625977 51.25732422 C-97.7393564 47.64440413 -95.35363378 45.03505072 -92.63891602 42.18310547 C-92.10250488 41.61430664 -91.56609375 41.04550781 -91.01342773 40.45947266 C-81.87757299 30.87475421 -72.45236059 23.07434148 -61.07641602 16.37060547 C-60.19493896 15.84055908 -60.19493896 15.84055908 -59.2956543 15.29980469 C-40.89626835 4.34911275 -21.24491907 -0.00418166 0 0 Z " fill="#2F699A" transform="translate(172.076416015625,54.62939453125)"/>
<path d="M0 0 C23.43 0 46.86 0 71 0 C71 14.52 71 29.04 71 44 C80.12487435 43.9208726 80.12487435 43.9208726 89.24951172 43.81982422 C90.38146973 43.8148291 91.51342773 43.80983398 92.6796875 43.8046875 C93.84226074 43.79421387 95.00483398 43.78374023 96.20263672 43.77294922 C99 44 99 44 101 46 C101.25396729 48.23913574 101.25396729 48.23913574 101.25878906 51.06054688 C101.26509338 52.11504028 101.27139771 53.16953369 101.27789307 54.25598145 C101.2738446 55.39869507 101.26979614 56.54140869 101.265625 57.71875 C101.26753845 58.88756714 101.2694519 60.05638428 101.27142334 61.26062012 C101.27278626 63.73543513 101.26908241 66.21025726 101.26074219 68.68505859 C101.25004446 72.48421205 101.26063418 76.28289259 101.2734375 80.08203125 C101.27211592 82.48177188 101.26955357 84.88151222 101.265625 87.28125 C101.26967346 88.42396362 101.27372192 89.56667725 101.27789307 90.74401855 C101.26843658 92.32575867 101.26843658 92.32575867 101.25878906 93.93945312 C101.25719788 94.8705188 101.25560669 95.80158447 101.25396729 96.76086426 C101 99 101 99 99 101 C97.18519592 101.26069641 97.18519592 101.26069641 94.96508789 101.2746582 C94.13405045 101.28419022 93.303013 101.29372223 92.4467926 101.30354309 C91.54782761 101.30263168 90.64886261 101.30172028 89.72265625 101.30078125 C88.80036728 101.30506638 87.87807831 101.3093515 86.92784119 101.31376648 C84.97509584 101.31951559 83.02232908 101.32000578 81.06958008 101.31567383 C78.07791665 101.31251627 75.08724401 101.3359573 72.09570312 101.36132812 C70.20052208 101.36360126 68.30533838 101.36430455 66.41015625 101.36328125 C65.51321548 101.372491 64.61627472 101.38170074 63.69215393 101.39118958 C62.85796432 101.38496078 62.02377472 101.37873199 61.16430664 101.37231445 C60.4308754 101.37294388 59.69744415 101.3735733 58.94178772 101.3742218 C56.39405288 100.88322172 55.50454982 100.09557733 54 98 C54 96.68 54 95.36 54 94 C36.18 94 18.36 94 0 94 C0 62.98 0 31.96 0 0 Z " fill="#E9F5FB" transform="translate(128,133)"/>
<path d="M0 0 C0.85428589 -0.00630432 1.70857178 -0.01260864 2.58874512 -0.019104 C3.51272095 -0.01505554 4.43669678 -0.01100708 5.38867188 -0.00683594 C6.80895691 -0.00970612 6.80895691 -0.00970612 8.25793457 -0.01263428 C10.26196559 -0.01399667 12.26600542 -0.0102965 14.27001953 -0.00195312 C17.34492741 0.00874559 20.41925101 -0.00184666 23.49414062 -0.01464844 C25.43815234 -0.01332685 27.38216368 -0.01076448 29.32617188 -0.00683594 C30.25014771 -0.0108844 31.17412354 -0.01493286 32.12609863 -0.019104 C32.98038452 -0.01279968 33.83467041 -0.00649536 34.71484375 0 C35.4682605 0.00159119 36.22167725 0.00318237 36.9979248 0.00482178 C38.85742188 0.25878906 38.85742188 0.25878906 40.85742188 2.25878906 C41.11138916 4.4979248 41.11138916 4.4979248 41.11621094 7.31933594 C41.12251526 8.37382935 41.12881958 9.42832275 41.13531494 10.51477051 C41.13126648 11.65748413 41.12721802 12.80019775 41.12304688 13.97753906 C41.12496033 15.1463562 41.12687378 16.31517334 41.12884521 17.51940918 C41.13020813 19.99422419 41.12650429 22.46904632 41.11816406 24.94384766 C41.10746633 28.74300111 41.11805606 32.54168166 41.13085938 36.34082031 C41.1295378 38.74056094 41.12697545 41.14030128 41.12304688 43.54003906 C41.12709534 44.68275269 41.1311438 45.82546631 41.13531494 47.00280762 C41.12585846 48.58454773 41.12585846 48.58454773 41.11621094 50.19824219 C41.11461975 51.12930786 41.11302856 52.06037354 41.11138916 53.01965332 C40.85742188 55.25878906 40.85742188 55.25878906 38.85742188 57.25878906 C37.0426178 57.51948547 37.0426178 57.51948547 34.82250977 57.53344727 C33.99147232 57.54297928 33.16043488 57.55251129 32.30421448 57.56233215 C31.40524948 57.56142075 30.50628448 57.56050934 29.58007812 57.55957031 C28.65778915 57.56385544 27.73550018 57.56814056 26.78526306 57.57255554 C24.83251772 57.57830465 22.87975095 57.57879485 20.92700195 57.57446289 C17.93533853 57.57130533 14.94466588 57.59474636 11.953125 57.62011719 C10.05794396 57.62239032 8.16276025 57.62309361 6.26757812 57.62207031 C5.37063736 57.63128006 4.47369659 57.64048981 3.54957581 57.64997864 C2.7153862 57.64374985 1.88119659 57.63752106 1.02172852 57.63110352 C0.28829727 57.63173294 -0.44513397 57.63236237 -1.20079041 57.63301086 C-3.74313634 57.14304934 -4.61983292 56.33099171 -6.14257812 54.25878906 C-6.40408222 51.3188832 -6.49152202 48.58973818 -6.43554688 45.65332031 C-6.43252563 44.90932983 -6.42950439 44.16533936 -6.4263916 43.39880371 C-6.4107097 40.62282414 -6.36882552 37.8470425 -6.33007812 35.07128906 C-6.26820313 28.86316406 -6.20632812 22.65503906 -6.14257812 16.25878906 C-21.65257812 16.25878906 -37.16257813 16.25878906 -53.14257812 16.25878906 C-53.14257812 14.27878906 -53.14257812 12.29878906 -53.14257812 10.25878906 C-37.63257813 10.25878906 -22.12257812 10.25878906 -6.14257812 10.25878906 C-6.14257812 7.61878906 -6.14257812 4.97878906 -6.14257812 2.25878906 C-3.75410985 -0.12967921 -3.25037237 0.00686466 0 0 Z " fill="#E37D71" transform="translate(188.142578125,176.7412109375)"/>
<path d="M0 0 C15.51 0 31.02 0 47 0 C47 10.89 47 21.78 47 33 C34.93484419 33 34.93484419 33 30.8125 30.5625 C21.30402709 26.08047682 10.26435934 27.17107266 0 27 C0 18.09 0 9.18 0 0 Z " fill="#EFF8FE" transform="translate(135,194)"/>
<path d="M0 0 C4.80988147 3.04062748 8.78281298 7.74797078 10.11328125 13.3359375 C10.91719015 19.85513621 9.98236308 24.96221274 6.11328125 30.3359375 C1.14519792 35.6454294 -3.44183547 38.35763997 -10.76171875 38.7109375 C-16.73883722 38.56017932 -20.33392122 36.82388336 -24.578125 32.6875 C-29.3858728 27.38160001 -31.39892473 22.88214354 -31.1953125 15.671875 C-30.32123395 9.05543231 -26.75875433 4.54125338 -21.60546875 0.5234375 C-14.59450781 -4.32049915 -7.36088854 -3.58509597 0 0 Z " fill="#F8D292" transform="translate(173.88671875,141.6640625)"/>
<path d="M0 0 C0.33 0 0.66 0 1 0 C1.08564209 0.55985596 1.17128418 1.11971191 1.25952148 1.6965332 C1.64948061 4.23561208 2.04344516 6.77405368 2.4375 9.3125 C2.57220703 10.19357422 2.70691406 11.07464844 2.84570312 11.98242188 C2.97783203 12.82998047 3.10996094 13.67753906 3.24609375 14.55078125 C3.36654053 15.33106689 3.4869873 16.11135254 3.61108398 16.9152832 C3.98488611 19.18279797 3.98488611 19.18279797 5 22 C5.66 21.67 6.32 21.34 7 21 C7 22.98 7 24.96 7 27 C22.51 27 38.02 27 54 27 C54 27.33 54 27.66 54 28 C38.49 28 22.98 28 7 28 C7 36.91 7 45.82 7 55 C12.56875 54.8453125 12.56875 54.8453125 18.25 54.6875 C27.57678393 54.55869437 34.8828911 55.01581032 43 60 C43 60.33 43 60.66 43 61 C28.81 61 14.62 61 0 61 C0 40.87 0 20.74 0 0 Z " fill="#C5E0F2" transform="translate(128,166)"/>
<path d="M0 0 C11.22 0 22.44 0 34 0 C34 3.63 34 7.26 34 11 C22.78 11 11.56 11 0 11 C0 7.37 0 3.74 0 0 Z " fill="#E8EBF1" transform="translate(189,183)"/>
<path d="M0 0 C15.51 0 31.02 0 47 0 C47 1.98 47 3.96 47 6 C31.49 6 15.98 6 0 6 C0 4.02 0 2.04 0 0 Z " fill="#669E54" transform="translate(135,187)"/>
<path d="M0 0 C0.66 0 1.32 0 2 0 C2.07476562 0.61746094 2.14953125 1.23492187 2.2265625 1.87109375 C3.41523236 9.5275261 6.00953281 15.34134408 11.78515625 20.63671875 C17.12214977 24.46138146 22.56571512 24.86989497 29 25 C26.4743833 27.76615162 24.57380725 28.83216391 20.765625 29.23828125 C14.78960657 29.41459235 10.65697564 28.89409699 6 25 C0.89585434 20.02552086 -2.0371276 15.68698777 -2.25 8.4375 C-2.27340365 5.06152373 -1.67724519 2.93517908 0 0 Z " fill="#F4BC64" transform="translate(145,151)"/>
<path d="M0 0 C15.51 0 31.02 0 47 0 C46 4 46 4 45 5 C41.93258218 5.12604257 38.88893175 5.18870085 35.8203125 5.203125 C34.43475662 5.21167511 34.43475662 5.21167511 33.02120972 5.22039795 C31.06249137 5.22986345 29.10375698 5.23638806 27.14501953 5.24023438 C24.14457452 5.2499367 21.1448152 5.28094401 18.14453125 5.3125 C16.24479575 5.31903002 14.34505533 5.3242805 12.4453125 5.328125 C11.54523468 5.3404718 10.64515686 5.3528186 9.71780396 5.36553955 C8.88038666 5.36253845 8.04296936 5.35953735 7.18017578 5.35644531 C6.44372833 5.36009094 5.70728088 5.36373657 4.94851685 5.36749268 C2.44503237 4.89533242 1.54001922 3.99252862 0 2 C0 1.34 0 0.68 0 0 Z " fill="#E27C6F" transform="translate(182,229)"/>
<path d="M0 0 C0.99 0 1.98 0 3 0 C3.12375 0.8971875 3.12375 0.8971875 3.25 1.8125 C3.82615238 4.17537932 3.82615238 4.17537932 6.0625 5.5 C6.701875 5.995 7.34125 6.49 8 7 C8 8.32 8 9.64 8 11 C7.01 11 6.02 11 5 11 C4.34 10.01 3.68 9.02 3 8 C1.68 8.33 0.36 8.66 -1 9 C-1.04289755 10.93109581 -1.04289755 10.93109581 0 13 C2.30252483 14.06902939 4.6372026 15.07175817 7 16 C8.39935013 18.79870027 8.25265405 20.90498792 8 24 C6.625 25.875 6.625 25.875 5 27 C4.34 27 3.68 27 3 27 C3 28.32 3 29.64 3 31 C2.01 31 1.02 31 0 31 C0 29.68 0 28.36 0 27 C-0.639375 26.7525 -1.27875 26.505 -1.9375 26.25 C-4 25 -4 25 -4.75 22.875 C-4.8325 22.25625 -4.915 21.6375 -5 21 C-1 22 -1 22 3 23 C3.33 21.68 3.66 20.36 4 19 C2.88625 18.54625 1.7725 18.0925 0.625 17.625 C-3 16 -3 16 -5 14 C-5.56410256 7.79487179 -5.56410256 7.79487179 -3.625 5.0625 C-2 4 -2 4 0 4 C0 2.68 0 1.36 0 0 Z " fill="#FEFBF6" transform="translate(162,144)"/>
<path d="M0 0 C2.31 0 4.62 0 7 0 C7 6.93 7 13.86 7 21 C4.69 21 2.38 21 0 21 C0 14.07 0 7.14 0 0 Z " fill="#F7CA8C" transform="translate(216,200)"/>
<path d="M0 0 C15.51 0 31.02 0 47 0 C47 0.99 47 1.98 47 3 C31.49 3 15.98 3 0 3 C0 2.01 0 1.02 0 0 Z " fill="#E8968C" transform="translate(182,226)"/>
<path d="M0 0 C2.87557703 -0.08138426 5.74882262 -0.14067851 8.625 -0.1875 C9.43324219 -0.21263672 10.24148437 -0.23777344 11.07421875 -0.26367188 C16.21965451 -0.32642109 19.46437508 0.32234192 24 3 C26.73572585 3.69907414 26.73572585 3.69907414 29 4 C29 4.33 29 4.66 29 5 C24.72929442 5.08692074 20.45881542 5.14036515 16.1875 5.1875 C14.36508789 5.22520508 14.36508789 5.22520508 12.50585938 5.26367188 C10.76079102 5.27817383 10.76079102 5.27817383 8.98046875 5.29296875 C7.90692139 5.3086792 6.83337402 5.32438965 5.72729492 5.34057617 C3 5 3 5 1.1262207 3.60668945 C0 2 0 2 0 0 Z " fill="#C56B61" transform="translate(182,229)"/>
<path d="M0 0 C2.02234367 3.0335155 2.79488913 5.40213228 3.8125 8.875 C5.42573372 13.90341907 6.84678762 16.7697237 11 20 C7.37 20 3.74 20 0 20 C0 13.4 0 6.8 0 0 Z " fill="#C76B60" transform="translate(183,205)"/>
<path d="M0 0 C6.6 0 13.2 0 20 0 C20 0.99 20 1.98 20 3 C13.4 3 6.8 3 0 3 C0 2.01 0 1.02 0 0 Z " fill="#FFFFFF" transform="translate(150,209)"/>
<path d="M0 0 C6.6 0 13.2 0 20 0 C20 0.99 20 1.98 20 3 C13.4 3 6.8 3 0 3 C0 2.01 0 1.02 0 0 Z " fill="#FFFFFF" transform="translate(150,202)"/>
<path d="M0 0 C3.96 0 7.92 0 12 0 C12 1.65 12 3.3 12 5 C8.04 5 4.08 5 0 5 C0 3.35 0 1.7 0 0 Z " fill="#FDFEFE" transform="translate(135,194)"/>
<path d="M0 0 C2.05078125 0.03255208 4.1015625 0.06510417 6.15234375 0.09765625 C6.15234375 2.07765625 6.15234375 4.05765625 6.15234375 6.09765625 C3.18234375 6.09765625 0.21234375 6.09765625 -2.84765625 6.09765625 C-2.89037725 4.4315372 -2.88829457 2.7638274 -2.84765625 1.09765625 C-1.84765625 0.09765625 -1.84765625 0.09765625 0 0 Z " fill="#FBFDFF" transform="translate(175.84765625,214.90234375)"/>
<path d="M0 0 C3.96 0.33 7.92 0.66 12 1 C12 2.32 12 3.64 12 5 C8.04 5 4.08 5 0 5 C0 3.35 0 1.7 0 0 Z " fill="#FEFEFF" transform="translate(135,215)"/>
<path d="M0 0 C2.31 0 4.62 0 7 0 C7 2.31 7 4.62 7 7 C4.69 7 2.38 7 0 7 C0 4.69 0 2.38 0 0 Z " fill="#E2E4EC" transform="translate(202,214)"/>
<path d="M0 0 C2.31 0 4.62 0 7 0 C7 2.31 7 4.62 7 7 C4.69 7 2.38 7 0 7 C0 4.69 0 2.38 0 0 Z " fill="#E2E3EB" transform="translate(189,214)"/>
<path d="M0 0 C2.31 0 4.62 0 7 0 C7 2.31 7 4.62 7 7 C4.69 7 2.38 7 0 7 C0 4.69 0 2.38 0 0 Z " fill="#E3E5ED" transform="translate(189,200)"/>
<path d="M0 0 C1.98 0 3.96 0 6 0 C6 2.31 6 4.62 6 7 C4.02 7 2.04 7 0 7 C0 4.69 0 2.38 0 0 Z " fill="#E4EDF6" transform="translate(203,200)"/>
<path d="M0 0 C0.58007812 0.34933594 1.16015625 0.69867188 1.7578125 1.05859375 C6.17269444 3.63029891 9.79941563 5.59995505 15 6 C15 6.33 15 6.66 15 7 C10.05 7 5.1 7 0 7 C0 4.69 0 2.38 0 0 Z " fill="#C9E2FA" transform="translate(189,186)"/>
<path d="M0 0 C2.64 0 5.28 0 8 0 C8 1.65 8 3.3 8 5 C5.36 5 2.72 5 0 5 C0 3.35 0 1.7 0 0 Z " fill="#FDFEFF" transform="translate(174,194)"/>
<path d="M0 0 C0.33 0 0.66 0 1 0 C1.18175781 0.90492188 1.18175781 0.90492188 1.3671875 1.828125 C1.53476563 2.62734375 1.70234375 3.4265625 1.875 4.25 C2.03742188 5.03890625 2.19984375 5.8278125 2.3671875 6.640625 C3.30413128 10.13392156 4.43676481 12.43676481 7 15 C4.69 15 2.38 15 0 15 C0 10.05 0 5.1 0 0 Z " fill="#F4B662" transform="translate(216,206)"/>
<path d="M0 0 C3.96 0.33 7.92 0.66 12 1 C12 1.99 12 2.98 12 4 C6.06 4.495 6.06 4.495 0 5 C0 3.35 0 1.7 0 0 Z " fill="#FDFEFF" transform="translate(135,208)"/>
<path d="M0 0 C3.96 0 7.92 0 12 0 C12 0.99 12 1.98 12 3 C6.06 3.495 6.06 3.495 0 4 C0 2.68 0 1.36 0 0 Z " fill="#FEFEFF" transform="translate(135,202)"/>
<path d="M0 0 C0 1.65 0 3.3 0 5 C-2.64 4.67 -5.28 4.34 -8 4 C-8 3.01 -8 2.02 -8 1 C-1.125 0 -1.125 0 0 0 Z " fill="#FEFEFF" transform="translate(182,208)"/>
<path d="M0 0 C0 1.65 0 3.3 0 5 C-2.64 4.67 -5.28 4.34 -8 4 C-8 3.01 -8 2.02 -8 1 C-1.125 0 -1.125 0 0 0 Z " fill="#FEFEFF" transform="translate(182,201)"/>
<path d="M0 0 C1.32 0.33 2.64 0.66 4 1 C4 2.65 4 4.3 4 6 C2.68 6 1.36 6 0 6 C0 4.02 0 2.04 0 0 Z " fill="#74B25E" transform="translate(170,187)"/>
<path d="M0 0 C0.99 0 1.98 0 3 0 C3 1.98 3 3.96 3 6 C2.01 6 1.02 6 0 6 C0 4.02 0 2.04 0 0 Z " fill="#77B660" transform="translate(147,187)"/>
</svg>
