<?xml version="1.0" encoding="UTF-8"?>
<svg xmlns="http://www.w3.org/2000/svg" xmlns:xlink="http://www.w3.org/1999/xlink" width="350px" height="363px" viewBox="0 0 350 363" version="1.1">
<g id="surface1">
<path style=" stroke:none;fill-rule:nonzero;fill:rgb(96.470588%,95.686275%,96.862745%);fill-opacity:1;" d="M 148.699219 135.777344 C 149.351562 135.769531 150.003906 135.761719 150.675781 135.757812 C 152.820312 135.742188 154.964844 135.761719 157.113281 135.785156 C 158.605469 135.785156 160.097656 135.785156 161.59375 135.78125 C 164.71875 135.78125 167.847656 135.796875 170.972656 135.824219 C 174.984375 135.863281 178.992188 135.859375 183.003906 135.847656 C 186.085938 135.839844 189.167969 135.847656 192.25 135.863281 C 193.730469 135.871094 195.207031 135.871094 196.6875 135.867188 C 198.753906 135.867188 200.816406 135.886719 202.878906 135.914062 C 203.492188 135.90625 204.101562 135.902344 204.734375 135.898438 C 207.382812 135.953125 208.820312 136.003906 210.925781 137.683594 C 214.089844 143.613281 215.316406 148.851562 215.238281 155.542969 C 215.242188 156.300781 215.246094 157.054688 215.25 157.832031 C 215.253906 160.300781 215.238281 162.769531 215.222656 165.238281 C 215.222656 166.964844 215.21875 168.6875 215.222656 170.414062 C 215.21875 174.011719 215.207031 177.613281 215.1875 181.210938 C 215.164062 185.832031 215.160156 190.453125 215.160156 195.074219 C 215.160156 198.628906 215.152344 202.179688 215.140625 205.734375 C 215.136719 207.441406 215.132812 209.144531 215.132812 210.847656 C 215.128906 213.222656 215.117188 215.597656 215.101562 217.972656 C 215.105469 218.675781 215.105469 219.382812 215.105469 220.113281 C 215.097656 220.757812 215.09375 221.402344 215.085938 222.066406 C 215.085938 222.625 215.082031 223.1875 215.082031 223.765625 C 214.898438 225.214844 214.898438 225.214844 213.5 227.3125 C 212.152344 227.574219 212.152344 227.574219 210.472656 227.570312 C 209.835938 227.574219 209.199219 227.578125 208.542969 227.582031 C 207.84375 227.574219 207.144531 227.566406 206.421875 227.5625 C 205.320312 227.5625 205.320312 227.5625 204.195312 227.566406 C 201.753906 227.566406 199.316406 227.554688 196.875 227.542969 C 195.183594 227.539062 193.496094 227.539062 191.804688 227.539062 C 188.261719 227.535156 184.714844 227.523438 181.171875 227.507812 C 176.617188 227.488281 172.066406 227.480469 167.511719 227.476562 C 164.023438 227.476562 160.535156 227.46875 157.042969 227.460938 C 155.363281 227.457031 153.683594 227.453125 152.007812 227.449219 C 149.664062 227.445312 147.320312 227.4375 144.976562 227.425781 C 144.277344 227.425781 143.578125 227.421875 142.855469 227.421875 C 141.902344 227.417969 141.902344 227.417969 140.929688 227.410156 C 140.375 227.410156 139.820312 227.40625 139.25 227.402344 C 137.898438 227.3125 137.898438 227.3125 136.5 226.613281 C 135.796875 224.589844 135.710938 222.691406 135.703125 220.5625 C 135.699219 219.914062 135.695312 219.265625 135.691406 218.59375 C 135.6875 217.886719 135.6875 217.179688 135.6875 216.449219 C 135.683594 215.699219 135.679688 214.949219 135.675781 214.175781 C 135.667969 211.695312 135.660156 209.210938 135.65625 206.730469 C 135.652344 205.007812 135.648438 203.28125 135.644531 201.554688 C 135.636719 197.9375 135.632812 194.320312 135.632812 190.703125 C 135.628906 186.070312 135.609375 181.4375 135.589844 176.804688 C 135.578125 173.238281 135.574219 169.675781 135.574219 166.113281 C 135.570312 164.40625 135.566406 162.695312 135.554688 160.988281 C 135.542969 158.597656 135.546875 156.207031 135.550781 153.816406 C 135.542969 153.113281 135.539062 152.410156 135.53125 151.683594 C 135.566406 146 136.945312 141.609375 140.832031 137.347656 C 143.238281 135.523438 145.785156 135.71875 148.699219 135.777344 Z M 148.699219 135.777344 "/>
<path style=" stroke:none;fill-rule:nonzero;fill:rgb(49.411765%,69.803923%,97.254902%);fill-opacity:1;" d="M 191.320312 163.488281 C 194.105469 165.761719 196.195312 168.320312 198.101562 171.359375 C 198.390625 171.816406 198.679688 172.273438 198.980469 172.746094 C 202.074219 178.496094 201.699219 185.648438 200.199219 191.859375 C 197.507812 199.53125 190.855469 204.835938 183.765625 208.28125 C 178.410156 210.117188 172.011719 210.144531 166.6875 208.121094 C 160.210938 204.636719 153.839844 198.304688 151.011719 191.464844 C 149 183.917969 150.386719 176.496094 154.175781 169.816406 C 157.613281 164.710938 163.085938 160.75 169.023438 159.074219 C 177.144531 157.675781 184.507812 158.78125 191.320312 163.488281 Z M 191.320312 163.488281 "/>
<path style=" stroke:none;fill-rule:nonzero;fill:rgb(27.450982%,45.490196%,59.215689%);fill-opacity:1;" d="M 191.320312 163.488281 C 194.105469 165.761719 196.195312 168.320312 198.101562 171.359375 C 198.390625 171.816406 198.679688 172.273438 198.980469 172.746094 C 202.074219 178.496094 201.699219 185.648438 200.199219 191.859375 C 197.507812 199.53125 190.855469 204.835938 183.765625 208.28125 C 178.410156 210.117188 172.011719 210.144531 166.6875 208.121094 C 160.210938 204.636719 153.839844 198.304688 151.011719 191.464844 C 149 183.917969 150.386719 176.496094 154.175781 169.816406 C 157.613281 164.710938 163.085938 160.75 169.023438 159.074219 C 177.144531 157.675781 184.507812 158.78125 191.320312 163.488281 Z M 159.601562 173.457031 C 157.371094 177.769531 156.175781 181.921875 156.800781 186.746094 C 158.710938 192.429688 161.644531 197.238281 166.601562 200.734375 C 171.535156 202.804688 177.160156 203.101562 182.210938 201.316406 C 185.984375 199.527344 188.75 197.980469 191.101562 194.4375 C 191.628906 192.351562 191.382812 191.058594 191.101562 188.84375 C 190.179688 187.898438 189.246094 186.964844 188.300781 186.046875 C 187.84375 184.160156 187.730469 182.398438 187.601562 180.449219 C 188.03125 180.25 188.464844 180.046875 188.914062 179.839844 C 190.492188 179.097656 190.492188 179.097656 191.800781 177.652344 C 191.863281 174.457031 191.1875 172.515625 189.085938 170.179688 C 185.128906 166.585938 180.210938 164.96875 174.914062 164.714844 C 168.433594 165.042969 163.417969 168.300781 159.601562 173.457031 Z M 159.601562 173.457031 "/>
<path style=" stroke:none;fill-rule:nonzero;fill:rgb(51.372552%,70.980394%,97.647059%);fill-opacity:1;" d="M 148.460938 136.09375 C 149.441406 136.085938 149.441406 136.085938 150.4375 136.074219 C 152.59375 136.058594 154.75 136.058594 156.90625 136.058594 C 158.402344 136.054688 159.902344 136.050781 161.398438 136.042969 C 164.535156 136.035156 167.675781 136.03125 170.816406 136.035156 C 174.839844 136.039062 178.867188 136.019531 182.894531 135.992188 C 185.984375 135.972656 189.078125 135.972656 192.167969 135.972656 C 193.652344 135.972656 195.136719 135.964844 196.621094 135.953125 C 198.699219 135.9375 200.773438 135.945312 202.847656 135.957031 C 203.769531 135.941406 203.769531 135.941406 204.710938 135.929688 C 208.875 135.988281 208.875 135.988281 211.027344 138.015625 C 213.472656 142.277344 214.199219 144.601562 214.199219 149.675781 C 188.789062 149.675781 163.378906 149.675781 137.199219 149.675781 C 137.996094 143.3125 137.996094 143.3125 138.863281 141.066406 C 139.027344 140.621094 139.191406 140.175781 139.359375 139.71875 C 141.421875 135.75 144.375 136.078125 148.460938 136.09375 Z M 148.460938 136.09375 "/>
<path style=" stroke:none;fill-rule:nonzero;fill:rgb(26.666668%,44.705883%,58.431375%);fill-opacity:1;" d="M 136.5 217.519531 C 162.371094 217.519531 188.242188 217.519531 214.898438 217.519531 C 214.898438 225.214844 214.898438 225.214844 213.5 227.3125 C 212.152344 227.574219 212.152344 227.574219 210.472656 227.570312 C 209.835938 227.574219 209.199219 227.578125 208.542969 227.582031 C 207.84375 227.574219 207.144531 227.566406 206.421875 227.5625 C 205.320312 227.5625 205.320312 227.5625 204.195312 227.566406 C 201.753906 227.566406 199.316406 227.554688 196.875 227.542969 C 195.183594 227.539062 193.496094 227.539062 191.804688 227.539062 C 188.261719 227.535156 184.714844 227.523438 181.171875 227.507812 C 176.617188 227.488281 172.066406 227.480469 167.511719 227.476562 C 164.023438 227.476562 160.535156 227.46875 157.042969 227.460938 C 155.363281 227.457031 153.683594 227.453125 152.007812 227.449219 C 149.664062 227.445312 147.320312 227.4375 144.976562 227.425781 C 144.277344 227.425781 143.578125 227.421875 142.855469 227.421875 C 142.21875 227.417969 141.585938 227.414062 140.929688 227.410156 C 140.375 227.410156 139.820312 227.40625 139.25 227.402344 C 137.898438 227.3125 137.898438 227.3125 136.5 226.613281 C 136.5 223.613281 136.5 220.613281 136.5 217.519531 Z M 136.5 217.519531 "/>
<path style=" stroke:none;fill-rule:nonzero;fill:rgb(95.294118%,94.509804%,96.862745%);fill-opacity:1;" d="M 187.75 168.964844 C 189.988281 170.992188 190.992188 172.429688 191.929688 175.335938 C 191.800781 177.652344 191.800781 177.652344 190.53125 179.359375 C 189 180.449219 189 180.449219 187.601562 180.449219 C 187.367188 182.066406 187.136719 183.683594 186.898438 185.347656 C 182.378906 185.605469 178.347656 185.792969 174.125 183.992188 C 169.027344 181.847656 163.652344 181.976562 158.199219 181.851562 C 158.050781 175.507812 158.050781 175.507812 161 172.058594 C 168.734375 164.257812 178.25 162.199219 187.75 168.964844 Z M 187.75 168.964844 "/>
<path style=" stroke:none;fill-rule:nonzero;fill:rgb(85.882354%,86.274511%,91.764706%);fill-opacity:1;" d="M 201.601562 155.273438 C 205.988281 155.273438 210.378906 155.273438 214.898438 155.273438 C 214.898438 175.8125 214.898438 196.355469 214.898438 217.519531 C 189.027344 217.519531 163.15625 217.519531 136.5 217.519531 C 136.5 217.289062 136.5 217.058594 136.5 216.820312 C 160.753906 216.820312 185.011719 216.820312 210 216.820312 C 210 198.585938 210 180.351562 210 161.566406 C 207.226562 161.566406 204.457031 161.566406 201.601562 161.566406 C 200.199219 160.167969 200.199219 160.167969 200.023438 158.417969 C 200.199219 156.671875 200.199219 156.671875 201.601562 155.273438 Z M 201.601562 155.273438 "/>
<path style=" stroke:none;fill-rule:nonzero;fill:rgb(25.098041%,40.392157%,52.156866%);fill-opacity:1;" d="M 177.101562 158.769531 C 184.046875 159 190.066406 161.511719 194.90625 166.59375 C 200.324219 173.386719 201.730469 179.507812 200.898438 188.144531 C 199.96875 194.609375 196.351562 199.441406 191.441406 203.636719 C 187.808594 206.335938 184.550781 208.191406 179.898438 207.726562 C 181.972656 205.527344 184.011719 203.804688 186.507812 202.089844 C 191.03125 198.640625 193.238281 193.773438 194.511719 188.320312 C 194.542969 187.570312 194.570312 186.820312 194.601562 186.046875 C 194.664062 184.703125 194.664062 184.703125 194.730469 183.335938 C 194.585938 176.53125 192.449219 170.554688 187.519531 165.707031 C 184.253906 163.03125 181.125 161.410156 177.101562 160.167969 C 177.101562 159.707031 177.101562 159.246094 177.101562 158.769531 Z M 177.101562 158.769531 "/>
<path style=" stroke:none;fill-rule:nonzero;fill:rgb(81.960785%,82.745099%,90.196079%);fill-opacity:1;" d="M 171.5 165.0625 C 177.449219 164.597656 182.800781 165.441406 187.75 168.964844 C 189.988281 170.992188 190.992188 172.429688 191.929688 175.335938 C 191.800781 177.652344 191.800781 177.652344 190.53125 179.359375 C 189 180.449219 189 180.449219 187.601562 180.449219 C 187.367188 182.066406 187.136719 183.683594 186.898438 185.347656 C 185.515625 185.347656 184.128906 185.347656 182.699219 185.347656 C 182.699219 183.5 182.699219 181.652344 182.699219 179.75 C 183.625 179.519531 184.546875 179.289062 185.5 179.050781 C 185.816406 175.078125 185.816406 175.078125 184.363281 171.488281 C 180.707031 168.125 176.179688 167.066406 171.5 165.761719 C 171.5 165.53125 171.5 165.300781 171.5 165.0625 Z M 171.5 165.0625 "/>
<path style=" stroke:none;fill-rule:nonzero;fill:rgb(38.039216%,62.352943%,93.725491%);fill-opacity:1;" d="M 186.898438 181.851562 C 187.132812 181.851562 187.363281 181.851562 187.601562 181.851562 C 187.789062 182.613281 187.976562 183.378906 188.167969 184.167969 C 188.738281 186.6875 188.738281 186.6875 190.136719 187.75 C 191.527344 189.328125 191.386719 190.917969 191.445312 192.949219 C 190.769531 195.851562 188.871094 197.539062 186.484375 199.195312 C 181.320312 201.878906 177.300781 202.6875 171.5 202.132812 C 173.527344 201.074219 175.566406 200.25 177.710938 199.464844 C 180.933594 198.167969 183.210938 197.085938 185.5 194.4375 C 185.992188 192.332031 185.820312 191.058594 185.5 188.84375 C 184.539062 187.53125 184.539062 187.53125 183.398438 186.746094 C 183.398438 186.285156 183.398438 185.824219 183.398438 185.347656 C 184.554688 185.347656 185.710938 185.347656 186.898438 185.347656 C 186.898438 184.191406 186.898438 183.039062 186.898438 181.851562 Z M 186.898438 181.851562 "/>
<path style=" stroke:none;fill-rule:nonzero;fill:rgb(55.686277%,72.941178%,97.647059%);fill-opacity:1;" d="M 202.980469 155.113281 C 203.53125 155.121094 204.078125 155.128906 204.644531 155.136719 C 205.242188 155.140625 205.835938 155.144531 206.449219 155.148438 C 207.382812 155.167969 207.382812 155.167969 208.335938 155.183594 C 209.28125 155.195312 209.28125 155.195312 210.242188 155.203125 C 211.792969 155.21875 213.347656 155.246094 214.898438 155.273438 C 214.898438 157.578125 214.898438 159.886719 214.898438 162.265625 C 212.710938 162.1875 210.523438 162.097656 208.335938 162.003906 C 207.714844 161.980469 207.09375 161.960938 206.449219 161.9375 C 205.855469 161.910156 205.257812 161.882812 204.644531 161.855469 C 204.097656 161.835938 203.546875 161.8125 202.980469 161.789062 C 201.601562 161.566406 201.601562 161.566406 200.199219 160.167969 C 200.023438 158.417969 200.023438 158.417969 200.199219 156.671875 C 201.601562 155.273438 201.601562 155.273438 202.980469 155.113281 Z M 202.980469 155.113281 "/>
<path style=" stroke:none;fill-rule:nonzero;fill:rgb(55.686277%,73.333335%,97.647059%);fill-opacity:1;" d="M 137.199219 205.628906 C 139.285156 205.609375 141.371094 205.597656 143.457031 205.585938 C 144.050781 205.582031 144.644531 205.574219 145.257812 205.570312 C 145.824219 205.566406 146.390625 205.5625 146.976562 205.5625 C 147.5 205.558594 148.023438 205.554688 148.5625 205.550781 C 149.800781 205.628906 149.800781 205.628906 150.5 206.328125 C 150.664062 210.195312 150.664062 210.195312 149.800781 211.925781 C 145.640625 211.925781 141.484375 211.925781 137.199219 211.925781 C 137.199219 209.847656 137.199219 207.769531 137.199219 205.628906 Z M 137.199219 205.628906 "/>
<path style=" stroke:none;fill-rule:nonzero;fill:rgb(85.09804%,89.411765%,97.647059%);fill-opacity:1;" d="M 214.199219 147.578125 C 214.429688 147.578125 214.660156 147.578125 214.898438 147.578125 C 214.898438 150.117188 214.898438 152.65625 214.898438 155.273438 C 213.28125 155.273438 211.664062 155.273438 210 155.273438 C 210 153.65625 210 152.039062 210 150.375 C 185.746094 150.375 161.488281 150.375 136.5 150.375 C 136.730469 149.683594 136.960938 148.992188 137.199219 148.277344 C 137.199219 148.738281 137.199219 149.199219 137.199219 149.675781 C 162.609375 149.675781 188.019531 149.675781 214.199219 149.675781 C 214.199219 148.984375 214.199219 148.292969 214.199219 147.578125 Z M 214.199219 147.578125 "/>
<path style=" stroke:none;fill-rule:nonzero;fill:rgb(41.176471%,65.098041%,97.647059%);fill-opacity:1;" d="M 201.601562 136.386719 C 208.636719 135.839844 208.636719 135.839844 211.050781 137.828125 C 211.398438 138.507812 211.742188 139.1875 212.101562 139.882812 C 212.503906 140.664062 212.910156 141.441406 213.324219 142.246094 C 214.238281 144.894531 214.371094 146.894531 214.199219 149.675781 C 212.8125 149.675781 211.429688 149.675781 210 149.675781 C 209.804688 149.117188 209.609375 148.5625 209.40625 147.988281 C 207.527344 143.027344 205.898438 140.203125 201.601562 137.085938 C 201.601562 136.855469 201.601562 136.625 201.601562 136.386719 Z M 201.601562 136.386719 "/>
<path style=" stroke:none;fill-rule:nonzero;fill:rgb(23.529412%,39.215687%,50.980395%);fill-opacity:1;" d="M 210 218.21875 C 211.617188 218.21875 213.234375 218.21875 214.898438 218.21875 C 214.9375 219.339844 214.964844 220.464844 214.988281 221.585938 C 215.003906 222.210938 215.019531 222.835938 215.035156 223.480469 C 214.898438 225.214844 214.898438 225.214844 213.5 227.3125 C 212.136719 227.515625 212.136719 227.515625 210.613281 227.441406 C 209.269531 227.378906 209.269531 227.378906 207.898438 227.3125 C 208.59375 224.3125 209.285156 221.3125 210 218.21875 Z M 210 218.21875 "/>
<path style=" stroke:none;fill-rule:nonzero;fill:rgb(89.411765%,91.764706%,97.647059%);fill-opacity:1;" d="M 162.398438 139.882812 C 166.296875 140.28125 166.296875 140.28125 167.300781 141.285156 C 167.386719 143.03125 167.386719 143.03125 167.300781 144.78125 C 166.601562 145.480469 166.601562 145.480469 164.148438 145.566406 C 161.699219 145.480469 161.699219 145.480469 161 144.78125 C 160.867188 143.074219 160.867188 143.074219 161 141.285156 C 161.460938 140.820312 161.925781 140.359375 162.398438 139.882812 Z M 162.398438 139.882812 "/>
<path style=" stroke:none;fill-rule:nonzero;fill:rgb(89.019608%,91.37255%,97.647059%);fill-opacity:1;" d="M 149.800781 139.882812 C 151.382812 140.132812 152.566406 140.566406 154 141.285156 C 153.769531 142.667969 153.539062 144.054688 153.300781 145.480469 C 151.679688 145.917969 151.679688 145.917969 149.800781 146.179688 C 149.105469 145.71875 148.414062 145.257812 147.699219 144.78125 C 148.226562 141.457031 148.226562 141.457031 149.800781 139.882812 Z M 149.800781 139.882812 "/>
<path style=" stroke:none;fill-rule:nonzero;fill:rgb(85.09804%,85.882354%,93.333334%);fill-opacity:1;" d="M 214.199219 147.578125 C 214.429688 147.578125 214.660156 147.578125 214.898438 147.578125 C 214.898438 150.117188 214.898438 152.65625 214.898438 155.273438 C 213.28125 155.273438 211.664062 155.273438 210 155.273438 C 210 153.425781 210 151.578125 210 149.675781 C 211.386719 149.675781 212.773438 149.675781 214.199219 149.675781 C 214.199219 148.984375 214.199219 148.292969 214.199219 147.578125 Z M 214.199219 147.578125 "/>
<path style=" stroke:none;fill-rule:nonzero;fill:rgb(43.921569%,66.274512%,97.254902%);fill-opacity:1;" d="M 210 155.972656 C 211.386719 155.972656 212.773438 155.972656 214.199219 155.972656 C 214.199219 157.816406 214.199219 159.664062 214.199219 161.566406 C 212.8125 161.566406 211.429688 161.566406 210 161.566406 C 210 159.71875 210 157.875 210 155.972656 Z M 210 155.972656 "/>
<path style=" stroke:none;fill-rule:nonzero;fill:rgb(21.960784%,38.431373%,50.588238%);fill-opacity:1;" d="M 199.5 221.015625 C 201.808594 221.015625 204.121094 221.015625 206.5 221.015625 C 206.5 221.941406 206.5 222.863281 206.5 223.816406 C 204.421875 223.816406 202.34375 223.816406 200.199219 223.816406 C 199.96875 222.890625 199.738281 221.96875 199.5 221.015625 Z M 199.5 221.015625 "/>
<path style=" stroke:none;fill-rule:nonzero;fill:rgb(21.960784%,38.431373%,50.588238%);fill-opacity:1;" d="M 144.199219 221.015625 C 146.277344 221.015625 148.359375 221.015625 150.5 221.015625 C 150.5 221.941406 150.5 222.863281 150.5 223.816406 C 148.421875 223.816406 146.34375 223.816406 144.199219 223.816406 C 144.199219 222.890625 144.199219 221.96875 144.199219 221.015625 Z M 144.199219 221.015625 "/>
<path style=" stroke:none;fill-rule:nonzero;fill:rgb(92.54902%,93.333334%,97.647059%);fill-opacity:1;" d="M 196.699219 141.984375 C 199.011719 141.984375 201.320312 141.984375 203.699219 141.984375 C 203.699219 142.675781 203.699219 143.367188 203.699219 144.082031 C 201.390625 144.082031 199.078125 144.082031 196.699219 144.082031 C 196.699219 143.386719 196.699219 142.695312 196.699219 141.984375 Z M 196.699219 141.984375 "/>
<path style=" stroke:none;fill-rule:nonzero;fill:rgb(92.941177%,93.725491%,97.647059%);fill-opacity:1;" d="M 184.800781 141.984375 C 187.109375 141.984375 189.421875 141.984375 191.800781 141.984375 C 191.800781 142.675781 191.800781 143.367188 191.800781 144.082031 C 189.488281 144.082031 187.179688 144.082031 184.800781 144.082031 C 184.800781 143.386719 184.800781 142.695312 184.800781 141.984375 Z M 184.800781 141.984375 "/>
<path style=" stroke:none;fill-rule:nonzero;fill:rgb(92.941177%,93.725491%,97.647059%);fill-opacity:1;" d="M 172.199219 141.984375 C 174.511719 141.984375 176.820312 141.984375 179.199219 141.984375 C 179.199219 142.675781 179.199219 143.367188 179.199219 144.082031 C 176.890625 144.082031 174.578125 144.082031 172.199219 144.082031 C 172.199219 143.386719 172.199219 142.695312 172.199219 141.984375 Z M 172.199219 141.984375 "/>
<path style=" stroke:none;fill-rule:nonzero;fill:rgb(21.960784%,38.039216%,50.196081%);fill-opacity:1;" d="M 191.101562 181.851562 C 192.023438 181.851562 192.949219 181.851562 193.898438 181.851562 C 193.898438 183.003906 193.898438 184.15625 193.898438 185.347656 C 192.976562 185.578125 192.050781 185.808594 191.101562 186.046875 C 191.101562 184.660156 191.101562 183.277344 191.101562 181.851562 Z M 191.101562 181.851562 "/>
</g>
</svg>
